<?xml version="1.0" encoding="UTF-8"?>
<svg id="Capa_1" data-name="Capa 1" xmlns="http://www.w3.org/2000/svg" viewBox="0 0 195.86 195.87">
  <defs>
    <style>
      .cls-1 {
        fill: #292929;
      }

      .cls-1, .cls-2 {
        stroke-width: 0px;
      }

      .cls-2 {
        fill: #fff;
      }
    </style>
  </defs>
  <g>
    <g>
      <path class="cls-1" d="M99.69,4.21C46.96,4.21,4.2,46.96,4.2,99.69s42.75,95.49,95.49,95.49,95.49-42.75,95.49-95.49S152.43,4.21,99.69,4.21ZM99.69,180.49c-44.62,0-80.8-36.17-80.8-80.8S55.07,18.9,99.69,18.9s80.8,36.17,80.8,80.8-36.17,80.8-80.8,80.8h0Z"/>
      <path class="cls-1" d="M99.69,195.86c-53.03,0-96.17-43.14-96.17-96.17S46.67,3.53,99.69,3.53s96.17,43.14,96.17,96.17-43.14,96.17-96.17,96.17h0ZM99.69,4.88C47.41,4.88,4.88,47.42,4.88,99.69s42.53,94.81,94.81,94.81,94.81-42.53,94.81-94.81S151.97,4.88,99.69,4.88ZM99.69,181.17c-44.93,0-81.48-36.55-81.48-81.48S54.77,18.22,99.69,18.22s81.48,36.55,81.48,81.48-36.55,81.48-81.48,81.48h0ZM99.69,19.57c-44.18,0-80.12,35.94-80.12,80.12s35.94,80.12,80.12,80.12,80.12-35.94,80.12-80.12S143.87,19.57,99.69,19.57Z"/>
    </g>
    <g>
      <path class="cls-2" d="M96.17.68C43.43.68.68,43.43.68,96.17s42.75,95.49,95.49,95.49,95.49-42.75,95.49-95.49S148.9.68,96.17.68ZM96.17,176.97c-44.62,0-80.8-36.17-80.8-80.8S51.54,15.37,96.17,15.37s80.8,36.17,80.8,80.8-36.17,80.8-80.8,80.8Z"/>
      <path class="cls-1" d="M96.17,192.33C43.14,192.33,0,149.19,0,96.17S43.14,0,96.17,0s96.17,43.14,96.17,96.17-43.14,96.17-96.17,96.17h0ZM96.17,1.36C43.89,1.36,1.36,43.89,1.36,96.17s42.53,94.81,94.81,94.81,94.81-42.53,94.81-94.81S148.45,1.36,96.17,1.36ZM96.17,177.64c-44.93,0-81.48-36.55-81.48-81.48S51.24,14.69,96.17,14.69s81.48,36.55,81.48,81.48-36.55,81.48-81.48,81.48h0ZM96.17,16.05c-44.18,0-80.12,35.94-80.12,80.12s35.94,80.12,80.12,80.12,80.12-35.94,80.12-80.12S140.35,16.05,96.17,16.05Z"/>
    </g>
  </g>
  <g>
    <g>
      <path class="cls-1" d="M46.29,134.59c3.07-1.67,5.6-4.23,7.47-7.64,3.72-6.75,7.28-13.79,10.71-20.58,2.16-4.3,4.33-8.55,6.53-12.82,1.11-2.09,2.2-4.22,3.3-6.37,3.93-7.6,8-15.49,12.53-22.94,6.36-10.43,15.07-17.41,25.88-20.69,2.79-.86,5.7-1.33,8.61-1.42,10.51-.32,20.23,4.5,25.42,12.55,5.52,8.58,6.03,18.31,1.47,28.88-2.88,6.73-7.88,12.51-15.29,17.7l-1.15.79c.37.77.74,1.52,1.12,2.26,1.08,2.17,2.19,4.43,2.89,6.76,2.71,9,1.25,18.94-3.89,26.61-5.09,7.55-13.28,12.21-23,13.11-.88.08-1.76.15-2.62.17-12.14.37-22.39-4.89-30.45-15.56-.51-.68-1.01-2.02-.55-2.97,1.76-3.65,3.6-7.28,5.49-10.99l1.6-3.16c.17-.35.51-.57.89-.61h.04c.36-.01.72.17.92.46.7,1.05,1.37,2.05,2,3.05,1.37,2.11,2.67,4.1,4.17,5.88,4.36,5.23,9.53,7.77,15.33,7.6,1.01-.03,2.05-.15,3.13-.36,4.81-.9,8.67-3.84,10.6-8.12,2.02-4.53,1.61-9.73-1.13-14.33-3.54-5.88-9.04-9.56-13.94-12.37-.35-.19-.56-.56-.53-.97.03-.41.25-.76.6-.91l2.92-1.37c2.03-.96,4-1.86,5.92-2.86,6.37-3.21,13.6-6.86,18.19-13.59,2.03-2.96,3.12-6.33,3.21-10.03.15-5.58-3.97-10.08-10.01-10.94-1.06-.15-2.11-.21-3.14-.18-5.07.15-9.64,2.41-14.88,7.34-4.19,3.94-7.74,8.89-10.87,15.12-8.41,16.74-17.29,34.27-27.14,53.52-3.91,7.64-9.92,12.97-17.89,15.92l-4.49-15.95Z"/>
      <path class="cls-1" d="M105.09,151.73c-11.85,0-21.89-5.34-29.85-15.88-.6-.8-1.25-2.46-.63-3.75,1.77-3.68,3.61-7.3,5.5-11l1.6-3.16c.28-.57.84-.95,1.48-1.01.7-.03,1.29.27,1.64.76.72,1.08,1.39,2.09,2.03,3.09,1.28,1.97,2.61,4.02,4.11,5.8,4.2,5.04,9.15,7.51,14.74,7.33.95-.03,1.94-.14,3.01-.35,4.58-.85,8.24-3.66,10.05-7.69,1.92-4.3,1.52-9.27-1.09-13.64-3.45-5.72-8.84-9.33-13.67-12.11-.59-.32-.95-.98-.9-1.67.05-.69.45-1.28,1.05-1.55l4.16-1.95c1.61-.76,3.13-1.47,4.64-2.25,6.3-3.17,13.43-6.77,17.92-13.34,1.95-2.85,2.99-6.08,3.08-9.63.14-5.19-3.71-9.37-9.36-10.17-1.01-.15-2.03-.21-3.01-.17-4.86.15-9.29,2.35-14.39,7.14-4.1,3.85-7.61,8.73-10.72,14.91-9.2,18.3-18.07,35.81-27.14,53.53-3.99,7.79-10.15,13.26-18.3,16.28-.2.07-.41.06-.6-.04-.19-.09-.32-.26-.38-.46l-4.49-15.95c-.1-.34.06-.7.36-.86,2.96-1.61,5.38-4.08,7.17-7.34,3.66-6.64,7.15-13.56,10.54-20.25l.16-.31c2.34-4.64,4.47-8.84,6.53-12.83,1.11-2.09,2.2-4.22,3.3-6.37l.14-.28c3.9-7.54,7.93-15.33,12.42-22.72,6.47-10.61,15.32-17.68,26.31-21.01,2.83-.87,5.79-1.36,8.81-1.45,10.76-.33,20.74,4.61,26.07,12.89,5.67,8.82,6.19,18.77,1.53,29.58-2.93,6.84-8.01,12.74-15.55,18.02l-.62.43c.27.56.55,1.12.83,1.66.98,1.97,2.2,4.41,2.94,6.89,2.77,9.2,1.28,19.38-3.99,27.24-5.23,7.74-13.59,12.52-23.56,13.44-1.05.1-1.9.15-2.66.17-.41.01-.81.02-1.22.02ZM83.33,118.42h0c-.12.01-.23.08-.28.19l-1.61,3.16c-1.88,3.69-3.72,7.31-5.48,10.97-.3.62.09,1.67.48,2.2,7.92,10.48,17.97,15.64,29.83,15.26.74-.02,1.55-.08,2.57-.17,9.51-.88,17.48-5.42,22.45-12.79,5.02-7.49,6.44-17.2,3.8-25.97-.71-2.36-1.89-4.74-2.85-6.65-.38-.74-.76-1.5-1.13-2.27-.16-.33-.05-.73.25-.94l1.15-.79c7.29-5.11,12.21-10.8,15.02-17.38,4.45-10.33,3.97-19.81-1.41-28.18-5.05-7.84-14.53-12.5-24.77-12.21-2.88.09-5.72.56-8.42,1.39-10.62,3.22-19.19,10.07-25.47,20.36-4.46,7.34-8.48,15.11-12.37,22.63l-.14.27c-1.09,2.15-2.19,4.29-3.3,6.38-2.05,3.98-4.19,8.17-6.52,12.81l-.16.31c-3.39,6.7-6.89,13.63-10.56,20.29-1.83,3.32-4.27,5.89-7.25,7.64l4.11,14.59c7.41-2.94,13.04-8.07,16.73-15.27,9.06-17.71,17.94-35.22,27.14-53.52,3.19-6.34,6.8-11.35,11.03-15.33,5.38-5.06,10.12-7.39,15.37-7.55,1.08-.04,2.18.03,3.27.19,6.43.91,10.81,5.72,10.65,11.7-.1,3.84-1.23,7.35-3.34,10.44-4.7,6.89-12.02,10.58-18.48,13.83-1.53.79-3.06,1.51-4.69,2.27l-4.18,1.96c-.1.05-.17.15-.17.28,0,.11.04.21.14.26,5.01,2.88,10.6,6.63,14.22,12.64,2.87,4.8,3.3,10.27,1.18,15.02-2.02,4.49-6.08,7.61-11.15,8.55-1.15.22-2.21.34-3.24.37-6.04.19-11.42-2.46-15.93-7.87-1.56-1.85-2.92-3.94-4.22-5.95-.64-1-1.3-2-2-3.04-.05-.06-.17-.13-.27-.13Z"/>
    </g>
    <g>
      <path class="cls-2" d="M40.87,129.48c3.07-1.67,5.6-4.23,7.47-7.64,3.72-6.75,7.28-13.79,10.71-20.58,2.16-4.3,4.33-8.55,6.53-12.82,1.11-2.09,2.2-4.22,3.3-6.37,3.93-7.6,8-15.49,12.53-22.94,6.36-10.43,15.07-17.41,25.88-20.69,2.79-.86,5.7-1.33,8.61-1.42,10.51-.32,20.23,4.5,25.42,12.55,5.52,8.58,6.03,18.31,1.47,28.88-2.88,6.73-7.88,12.51-15.29,17.7l-1.15.79c.37.77.74,1.52,1.12,2.26,1.08,2.17,2.19,4.43,2.89,6.76,2.71,9,1.25,18.94-3.89,26.61-5.09,7.55-13.28,12.21-23,13.11-.88.08-1.76.15-2.62.17-12.14.37-22.39-4.89-30.45-15.56-.51-.68-1.01-2.02-.55-2.97,1.76-3.65,3.6-7.28,5.49-10.99l1.6-3.16c.17-.35.51-.57.89-.61h.04c.36-.01.72.17.92.46.7,1.05,1.37,2.05,2,3.05,1.37,2.11,2.67,4.1,4.17,5.88,4.36,5.23,9.53,7.77,15.33,7.6,1.01-.03,2.05-.15,3.13-.36,4.81-.9,8.67-3.84,10.6-8.12,2.02-4.53,1.61-9.73-1.13-14.33-3.54-5.88-9.04-9.56-13.94-12.37-.35-.19-.56-.56-.53-.97.03-.41.25-.76.6-.91l2.92-1.37c2.03-.96,4-1.86,5.92-2.86,6.37-3.21,13.6-6.86,18.19-13.59,2.03-2.96,3.12-6.33,3.21-10.03.15-5.58-3.97-10.08-10.01-10.94-1.06-.15-2.11-.21-3.14-.18-5.07.15-9.64,2.41-14.88,7.34-4.19,3.94-7.74,8.89-10.87,15.12-8.41,16.74-17.29,34.27-27.14,53.52-3.91,7.64-9.92,12.97-17.89,15.92l-4.49-15.95Z"/>
      <path class="cls-1" d="M99.66,146.62c-11.85,0-21.89-5.34-29.85-15.88-.6-.8-1.25-2.46-.63-3.75,1.79-3.71,3.7-7.47,5.5-11l1.6-3.16c.29-.57.84-.95,1.49-1.01.7-.03,1.29.27,1.64.76.72,1.07,1.39,2.09,2.03,3.09,1.28,1.97,2.61,4.02,4.11,5.8,4.2,5.04,9.16,7.51,14.74,7.33.96-.03,1.94-.14,3.01-.35,4.58-.85,8.24-3.66,10.05-7.69,1.92-4.29,1.52-9.27-1.09-13.64-3.45-5.72-8.84-9.33-13.67-12.11-.59-.31-.95-.97-.9-1.67.05-.69.45-1.28,1.05-1.55l4.16-1.95c1.61-.76,3.14-1.47,4.65-2.25,6.3-3.17,13.43-6.77,17.92-13.34,1.95-2.85,2.99-6.08,3.08-9.63.14-5.19-3.71-9.37-9.36-10.17-1.01-.15-2.03-.2-3.01-.17-4.86.15-9.29,2.35-14.39,7.14-4.1,3.86-7.61,8.73-10.72,14.91-9.18,18.27-18.06,35.78-27.14,53.53-3.99,7.79-10.15,13.26-18.3,16.28-.2.07-.41.06-.6-.04-.19-.09-.32-.26-.38-.46l-4.49-15.95c-.1-.34.06-.7.36-.86,2.96-1.61,5.38-4.08,7.17-7.34,3.66-6.64,7.15-13.56,10.54-20.24l.16-.31c2.31-4.58,4.44-8.78,6.53-12.83,1.11-2.09,2.2-4.22,3.3-6.37l.15-.29c3.9-7.53,7.92-15.32,12.41-22.7,6.47-10.61,15.32-17.68,26.31-21.01,2.83-.87,5.79-1.36,8.81-1.45,10.76-.32,20.74,4.61,26.07,12.89,5.67,8.82,6.19,18.77,1.53,29.58-2.93,6.84-8.01,12.73-15.55,18.02l-.62.43c.27.56.55,1.12.83,1.66.98,1.97,2.2,4.41,2.94,6.89,2.77,9.2,1.28,19.38-3.99,27.24-5.23,7.75-13.59,12.52-23.56,13.44-1.09.1-1.91.15-2.66.17-.41.01-.81.02-1.22.02ZM77.9,113.32h0c-.12.01-.23.08-.28.19l-1.6,3.16c-1.8,3.53-3.7,7.28-5.48,10.97-.3.62.09,1.67.48,2.2,7.92,10.48,17.95,15.64,29.83,15.26.73-.02,1.52-.07,2.57-.17,9.51-.88,17.48-5.42,22.45-12.79,5.02-7.49,6.44-17.2,3.8-25.97-.71-2.36-1.89-4.74-2.85-6.65-.38-.74-.76-1.5-1.13-2.27-.16-.33-.05-.73.25-.94l1.15-.79c7.29-5.11,12.21-10.8,15.02-17.38,4.45-10.33,3.97-19.81-1.41-28.18-5.05-7.84-14.55-12.51-24.77-12.21-2.88.09-5.72.56-8.42,1.39-10.62,3.22-19.19,10.07-25.47,20.36-4.46,7.33-8.48,15.1-12.36,22.61l-.15.29c-1.09,2.15-2.19,4.29-3.3,6.38-2.08,4.03-4.22,8.23-6.52,12.81l-.16.31c-3.39,6.7-6.89,13.63-10.56,20.29-1.83,3.32-4.27,5.89-7.25,7.64l4.11,14.59c7.41-2.94,13.04-8.07,16.73-15.27,9.08-17.75,17.96-35.26,27.14-53.52,3.19-6.33,6.8-11.35,11.03-15.33,5.38-5.06,10.12-7.39,15.37-7.55,1.08-.04,2.18.03,3.27.19,6.43.91,10.81,5.72,10.65,11.7-.1,3.84-1.23,7.35-3.34,10.44-4.7,6.89-12.02,10.58-18.47,13.83-1.53.79-3.07,1.51-4.69,2.28l-4.17,1.96c-.1.05-.17.15-.17.29,0,.11.04.21.14.26,5.01,2.88,10.6,6.63,14.23,12.65,2.87,4.8,3.3,10.27,1.18,15.02-2.02,4.49-6.08,7.61-11.15,8.56-1.15.22-2.21.34-3.24.37-6.06.18-11.42-2.46-15.93-7.87-1.56-1.85-2.91-3.94-4.22-5.95-.64-.99-1.3-2-2-3.04-.05-.06-.17-.13-.27-.13Z"/>
    </g>
  </g>
</svg>