<?xml version="1.0" encoding="UTF-8"?>
<svg id="Capa_2" data-name="Capa 2" xmlns="http://www.w3.org/2000/svg" viewBox="0 0 438.02 90.03">
  <defs>
    <style>
      .cls-1 {
        fill: #ffd871;
      }

      .cls-2 {
        fill: #06416a;
      }
    </style>
  </defs>
  <g id="Capa_1-2" data-name="Capa 1">
    <g>
      <g>
        <g>
          <g>
            <path class="cls-2" d="M181.89,87.99c-.5,0-.95-.31-1.12-.79l-8.2-22.65h-9.22l-3.72,22.44c-.1.58-.59,1-1.18,1h-13.56c-.35,0-.68-.15-.91-.42-.23-.27-.32-.62-.27-.97l10.94-66.01c.1-.58.59-1,1.18-1h25.87c5.2,0,9.56.94,12.96,2.8,3.46,1.9,5.95,4.62,7.4,8.1,1.42,3.43,1.77,7.47,1.03,12.01-.77,4.53-2.45,8.48-5,11.77-2.46,3.17-5.65,5.67-9.51,7.43l9.22,24.67c.14.37.09.78-.14,1.1s-.59.51-.98.51h-14.8ZM174.36,51.22c2.52,0,4.69-.37,6.46-1.09,1.71-.7,3.08-1.73,4.08-3.07,1.02-1.36,1.69-3.04,2.02-4.99.5-2.96.02-5.12-1.46-6.6-1.52-1.52-4.12-2.29-7.73-2.29h-9.18l-2.99,18.04h8.8Z"/>
            <path class="cls-2" d="M181.72,20.79c5.02,0,9.15.89,12.38,2.66,3.23,1.77,5.52,4.28,6.87,7.51,1.34,3.23,1.66,7.02.95,11.36-.74,4.34-2.33,8.09-4.76,11.23-2.44,3.15-5.6,5.57-9.48,7.27-.2.09-.4.17-.6.25l-1.59-4.26h-14.44l2.37,6.56h-11.07l1.81-10.94h10.21c2.69,0,4.99-.39,6.91-1.17,1.92-.78,3.45-1.93,4.59-3.46,1.14-1.52,1.88-3.36,2.24-5.52.56-3.34-.04-5.88-1.79-7.64-1.76-1.76-4.62-2.64-8.57-2.64h-10.19l-3.38,20.42h-5.52l-1.82,10.94h5.52l-3.88,23.44h-13.56l10.94-66.01h25.87M187.08,61.07l9.62,25.73h-14.8l-8.48-23.44h.82c4.82,0,9.1-.76,12.85-2.29M181.72,18.4h-25.87c-1.17,0-2.16.84-2.36,2l-10.94,66.01c-.11.69.08,1.4.53,1.93.45.54,1.12.84,1.82.84h13.56c1.17,0,2.16-.85,2.36-2l3.55-21.44h7.37l7.91,21.86c.34.95,1.24,1.58,2.25,1.58h14.8c.78,0,1.52-.38,1.96-1.03.45-.64.55-1.46.27-2.2l-8.84-23.65c3.59-1.81,6.59-4.26,8.95-7.31,2.67-3.44,4.43-7.58,5.23-12.29.78-4.78.41-9.04-1.1-12.68-1.55-3.73-4.22-6.66-7.92-8.69-3.57-1.96-8.13-2.95-13.53-2.95h0ZM169.56,34.38h8.17c3.28,0,5.6.65,6.88,1.94,1.19,1.19,1.56,3.01,1.13,5.56-.29,1.77-.89,3.28-1.8,4.48-.88,1.18-2.05,2.05-3.57,2.67-1.62.66-3.65,1-6.01,1h-7.39l2.59-15.65h0ZM160.66,54.81h.68l-1.02,6.17h-.68l1.02-6.17h0ZM174.44,59.19h9.38l.16.44c-2.68.82-5.67,1.27-8.91,1.33l-.64-1.77h0Z"/>
          </g>
          <g>
            <path class="cls-2" d="M309.16,87.99c-.35,0-.68-.15-.91-.42-.23-.27-.32-.62-.27-.97l8.06-48.91c.09-.58.59-1,1.18-1h13.25c.35,0,.68.15.91.42.23.27.32.62.27.97l-8.11,48.91c-.1.58-.59,1-1.18,1h-13.2ZM324.88,32.74c-2.38,0-4.31-.8-5.74-2.39-1.44-1.6-2-3.57-1.64-5.85.38-2.22,1.52-4.11,3.4-5.62,1.86-1.5,3.96-2.26,6.24-2.26,2.41,0,4.36.8,5.78,2.39,1.45,1.61,1.98,3.58,1.6,5.87-.34,2.2-1.47,4.09-3.35,5.6-1.86,1.5-3.98,2.26-6.29,2.26Z"/>
            <path class="cls-2" d="M327.14,17.82c2.07,0,3.7.66,4.9,1.99,1.2,1.33,1.63,2.95,1.31,4.87-.3,1.92-1.27,3.54-2.92,4.87-1.65,1.33-3.5,1.99-5.54,1.99s-3.65-.66-4.85-1.99c-1.2-1.33-1.65-2.95-1.35-4.87.32-1.92,1.31-3.54,2.97-4.87,1.65-1.33,3.48-1.99,5.49-1.99M330.47,37.89l-8.11,48.91h-13.2l8.06-48.91h13.25M327.14,15.43c-2.56,0-4.91.85-6.99,2.52-2.12,1.7-3.4,3.83-3.83,6.34-.41,2.65.26,5.01,1.93,6.87,1.66,1.85,3.89,2.78,6.63,2.78,2.59,0,4.95-.85,7.03-2.52,2.13-1.71,3.4-3.85,3.79-6.37.44-2.59-.21-4.97-1.89-6.83-1.66-1.85-3.91-2.78-6.67-2.78h0ZM330.47,35.5h-13.25c-1.17,0-2.17.85-2.36,2l-8.06,48.91c-.11.69.08,1.4.54,1.93.45.53,1.12.84,1.82.84h13.2c1.17,0,2.16-.84,2.36-2l8.11-48.91c.11-.69-.08-1.4-.53-1.93-.45-.54-1.12-.84-1.82-.84h0ZM330.47,40.27h0,0Z"/>
          </g>
          <g>
            <path class="cls-2" d="M359.9,87.99c-.35,0-.68-.16-.91-.42-.23-.27-.32-.62-.27-.97l4.87-29.11c.44-2.73.12-4.77-.94-6.07-1.07-1.3-2.7-1.93-4.97-1.93-1.74,0-3.35.39-4.8,1.17-1.44.77-2.66,1.9-3.62,3.35-.98,1.48-1.66,3.27-2.01,5.34l-4.56,27.64c-.1.58-.59,1-1.18,1h-13.25c-.35,0-.68-.15-.91-.42-.23-.27-.32-.62-.27-.97l8.11-48.91c.1-.58.59-1,1.18-1h12.58c.35,0,.68.15.9.41.23.26.33.61.28.95l-.6,4.15c.97-1.05,1.99-1.98,3.07-2.78,3.11-2.29,6.85-3.44,11.14-3.44,3.73,0,6.93.85,9.51,2.52,2.61,1.69,4.48,4.12,5.57,7.21,1.07,3.03,1.26,6.63.58,10.72l-5.1,30.57c-.1.58-.59,1-1.18,1h-13.25Z"/>
            <path class="cls-2" d="M363.75,37.18c3.51,0,6.47.78,8.86,2.33,2.39,1.55,4.09,3.75,5.09,6.6,1,2.85,1.18,6.22.53,10.12l-5.09,30.57h-13.25l4.87-29.11c.5-3.1.1-5.44-1.2-7.02-1.3-1.58-3.26-2.37-5.89-2.37-1.95,0-3.74.44-5.36,1.31-1.62.87-2.98,2.12-4.05,3.74-1.08,1.62-1.81,3.56-2.19,5.8l-4.56,27.65h-13.25l8.11-48.91h12.58l-1.25,8.71c-.62.98-1.21,2.04-1.76,3.16l1.24.44.52-3.61c1.64-2.58,3.51-4.65,5.62-6.21,2.91-2.14,6.39-3.21,10.43-3.21M348.96,37.89h0M363.75,34.79c-4.55,0-8.53,1.24-11.85,3.68-.23.17-.47.35-.7.54l.1-.66c.03-.15.04-.3.04-.45,0-1.32-1.07-2.39-2.39-2.39h-12.59c-1.17,0-2.16.84-2.36,2l-8.11,48.91c-.11.69.08,1.4.53,1.93.45.54,1.12.84,1.82.84h13.25c1.17,0,2.17-.85,2.36-2l4.56-27.65c.32-1.89.94-3.53,1.83-4.87.86-1.3,1.91-2.27,3.19-2.96,1.28-.69,2.67-1.02,4.23-1.02,1.89,0,3.22.49,4.05,1.5.84,1.02,1.07,2.74.68,5.12l-4.87,29.09c-.12.69.08,1.4.53,1.94.45.54,1.12.85,1.82.85h13.25c1.17,0,2.16-.84,2.36-2l5.09-30.57c.71-4.28.5-8.09-.63-11.31-1.18-3.35-3.21-5.97-6.05-7.81-2.77-1.8-6.19-2.71-10.16-2.71h0Z"/>
          </g>
          <g>
            <path class="cls-2" d="M397.71,88.83c-5.43,0-9.9-1.85-13.28-5.5-3.36-3.62-5.06-8.76-5.06-15.28,0-3.87.55-7.74,1.64-11.5,1.09-3.77,2.72-7.23,4.84-10.29,2.14-3.1,4.81-5.61,7.93-7.46,3.16-1.88,6.79-2.83,10.8-2.83,2.93,0,5.39.51,7.33,1.51,1.93,1,3.48,2.28,4.6,3.81.37.51.71,1.02,1.02,1.54l3.68-22.25c.1-.58.59-1,1.18-1h13.25c.35,0,.68.15.91.42.23.27.32.62.27.97l-10.94,66.01c-.1.58-.59,1-1.18,1h-13.03c-.35,0-.69-.16-.91-.42-.23-.27-.32-.62-.26-.97l.62-3.59c-.39.44-.8.87-1.24,1.28-1.46,1.38-3.22,2.5-5.22,3.32-2.01.82-4.35,1.24-6.94,1.24ZM408.25,49c-2.11,0-3.91.51-5.5,1.57-1.62,1.08-3,2.53-4.1,4.31-1.13,1.83-1.99,3.85-2.56,6.01-.58,2.18-.87,4.35-.87,6.45,0,2.67.59,4.8,1.75,6.32,1.1,1.44,2.75,2.14,5.03,2.14,2.08,0,3.93-.53,5.5-1.57,1.62-1.08,3.02-2.54,4.15-4.32,1.16-1.83,2.04-3.85,2.62-6.01.59-2.17.89-4.34.89-6.44,0-2.72-.6-4.85-1.8-6.34-1.15-1.43-2.82-2.12-5.12-2.12Z"/>
            <path class="cls-2" d="M435.63,20.79h0M435.63,20.79l-10.94,66.01h-13.03l1.33-7.71h-.53c-.92,1.59-2.05,3.03-3.41,4.32-1.36,1.28-2.98,2.31-4.85,3.08-1.88.77-4.04,1.15-6.49,1.15-5.11,0-9.24-1.71-12.4-5.12-3.16-3.41-4.74-8.23-4.74-14.46,0-3.78.53-7.5,1.59-11.16,1.06-3.66,2.62-6.98,4.67-9.95,2.05-2.97,4.57-5.34,7.55-7.11,2.98-1.77,6.38-2.66,10.19-2.66,2.75,0,5.01.46,6.78,1.37,1.77.92,3.17,2.07,4.19,3.46,1.02,1.39,1.76,2.79,2.24,4.21h.4l4.21-25.43h13.25M402,77.01c2.33,0,4.39-.59,6.16-1.77,1.77-1.18,3.27-2.74,4.5-4.67,1.23-1.93,2.15-4.05,2.77-6.34.62-2.29.93-4.54.93-6.76,0-3.01-.69-5.38-2.06-7.09-1.37-1.71-3.39-2.57-6.05-2.57-2.33,0-4.39.59-6.16,1.77-1.77,1.18-3.26,2.74-4.45,4.67-1.2,1.93-2.1,4.05-2.7,6.34-.61,2.29-.91,4.54-.91,6.76,0,2.95.66,5.3,1.99,7.04,1.33,1.74,3.32,2.61,5.98,2.61M435.63,18.4h-13.25c-1.17,0-2.16.85-2.36,2l-3.21,19.39c-1.15-1.33-2.62-2.45-4.37-3.36-2.11-1.09-4.76-1.64-7.87-1.64-4.23,0-8.07,1.01-11.41,2.99-3.27,1.94-6.06,4.57-8.3,7.81-2.19,3.17-3.87,6.74-5,10.64-1.12,3.86-1.69,7.84-1.69,11.83,0,6.82,1.81,12.24,5.38,16.09,3.62,3.9,8.38,5.88,14.16,5.88,2.75,0,5.24-.45,7.39-1.33,1.55-.63,2.97-1.44,4.22-2.4l-.02.09c-.12.69.07,1.41.53,1.94.45.54,1.12.85,1.83.85h13.03c1.17,0,2.16-.84,2.36-2l10.92-65.9c.04-.16.05-.33.05-.51,0-1.32-1.07-2.39-2.39-2.39h0ZM435.63,23.17h0,0ZM402,74.62c-2.51,0-3.53-.96-4.08-1.67-1-1.31-1.5-3.19-1.5-5.6,0-2,.28-4.07.83-6.15.54-2.05,1.36-3.96,2.43-5.69,1.01-1.63,2.27-2.96,3.75-3.94,1.38-.92,2.97-1.37,4.83-1.37,2.55,0,3.61.96,4.18,1.68,1.02,1.27,1.54,3.15,1.54,5.59,0,1.99-.29,4.06-.85,6.13-.55,2.05-1.39,3.96-2.48,5.68-1.04,1.64-2.32,2.98-3.8,3.96-1.38.92-2.97,1.37-4.83,1.37h0Z"/>
          </g>
        </g>
        <g>
          <path class="cls-2" d="M226.36,88.35c-1.19,0-2.5-.05-4.15-.12l-1.82-.07c-4.74-.18-8.62-1.07-11.89-2.71-3.41-1.71-6.05-4.25-7.84-7.54-1.78-3.26-2.63-7.23-2.54-11.83.09-4.29.87-8.36,2.32-12.1,1.45-3.75,3.51-7.11,6.12-9.99,2.62-2.88,5.76-5.17,9.31-6.79,3.57-1.63,7.52-2.46,11.75-2.46,3.65,0,6.97.6,9.87,1.8,2.95,1.21,5.32,3,7.04,5.31,1.74,2.34,2.63,5.2,2.63,8.49s-1.01,6.28-3.01,8.49c-1.94,2.15-4.8,3.82-8.51,4.97-3.58,1.11-8.03,1.89-13.22,2.31-2.77.22-5.84.39-9.12.49-.04,1.75.18,3.34.65,4.74.45,1.33,1.23,2.36,2.39,3.13,1.14.76,3.14,1.3,5.49,1.47,1.14.08,2.36.16,3.56.16,1.42,0,2.65-.11,3.85-.33,5.01-.69,8.91-3.3,11.64-7.76,3.12-5.09,6-10.46,8.78-15.65,1.62-3.02,3.29-6.14,5-9.18.88-1.57,1.75-3.14,2.62-4.71,3.15-5.68,6.41-11.56,10.02-17.1,5.1-7.82,11.92-12.93,20.26-15.2,2.17-.59,4.4-.89,6.64-.89,8.07,0,15.45,3.93,19.25,10.25,4.05,6.73,4.2,14.21.47,22.23-2.36,5.07-6.32,9.38-12.11,13.16l-.62.4c.21.48.44.96.65,1.44.77,1.68,1.57,3.41,2.06,5.23,1.88,6.97.52,14.57-3.62,20.34-4.09,5.69-10.47,9.09-17.98,9.55-.68.04-1.35.06-2,.06h0c-9.31,0-17.04-4.25-22.97-12.63-.39-.55-.84-1.77-.37-2.66,1.44-2.75,2.89-5.42,4.43-8.25l1.25-2.29c.2-.37.58-.61,1.01-.62.01,0,.03,0,.04,0,.41,0,.79.21,1.01.55.51.8.99,1.58,1.46,2.36.98,1.61,1.91,3.13,2.98,4.51,3.1,3.95,6.84,5.96,11.11,5.96.75,0,1.52-.06,2.31-.18,3.53-.55,6.41-2.63,7.91-5.7,1.59-3.26,1.4-7.09-.51-10.49-2.5-4.46-6.51-7.32-10.11-9.53-.38-.23-.6-.66-.57-1.1.03-.44.3-.83.71-1.01.77-.34,1.52-.66,2.26-.98,1.57-.68,3.05-1.32,4.52-2,4.85-2.26,10.34-4.81,13.91-9.71,1.56-2.13,2.42-4.59,2.58-7.32.23-4.08-2.58-7.34-6.99-8.1-.77-.13-1.55-.2-2.3-.2-3.72,0-7.17,1.58-11.16,5.11-3.22,2.85-6,6.48-8.48,11.07-6.7,12.41-13.81,25.44-21.74,39.84-4.02,7.29-10.49,11.68-19.25,13.04-2.91.54-4.75.73-7,.73ZM226.3,47.1c-2.58,0-4.71.62-6.32,1.84-1.67,1.26-2.99,2.89-3.92,4.84-.35.73-.67,1.49-.95,2.3,1.75-.05,3.34-.11,4.75-.19,3.52-.2,6.27-.54,8.18-1.01,2.19-.54,3.15-1.19,3.57-1.65.58-.62.85-1.38.85-2.31,0-1.17-.45-2.03-1.43-2.69-1.09-.74-2.68-1.12-4.73-1.12Z"/>
          <path class="cls-2" d="M294.23,6.45c7.49,0,14.53,3.52,18.23,9.68,4.14,6.88,3.7,14.04.41,21.11-2.53,5.44-6.72,9.42-11.68,12.67-.5.33-1,.65-1.46.95,1.07,2.55,2.38,4.91,3.06,7.44,3.4,12.64-4.32,27.39-20.52,28.39-.65.04-1.3.06-1.93.06-9.36,0-16.53-4.4-22-12.12-.26-.37-.46-1.08-.29-1.42,1.82-3.49,3.73-6.94,5.67-10.52,1.59,2.48,2.87,4.86,4.51,6.95,3.16,4.02,7.16,6.41,12.06,6.41.81,0,1.64-.06,2.49-.2,8.49-1.32,12.54-10.32,8.26-17.96-2.41-4.3-6.12-7.25-10.53-9.97,2.4-1.05,4.63-1.98,6.81-3,5.39-2.51,10.73-5.09,14.38-10.09,1.74-2.38,2.64-5.06,2.8-7.95.26-4.71-3.06-8.49-7.97-9.34-.86-.15-1.69-.22-2.5-.22-4.65,0-8.46,2.32-11.95,5.41-3.64,3.22-6.43,7.11-8.74,11.4-7.19,13.31-14.44,26.58-21.74,39.83-3.99,7.24-10.36,11.19-18.39,12.44-2.97.55-4.72.72-6.82.72-1.56,0-3.32-.09-5.92-.19-4.4-.17-8.19-.97-11.4-2.58-3.2-1.61-5.65-3.96-7.33-7.04-1.68-3.09-2.48-6.83-2.39-11.23.09-4.16.83-8.06,2.24-11.7,1.4-3.63,3.37-6.84,5.89-9.61,2.53-2.78,5.5-4.95,8.93-6.51,3.43-1.57,7.18-2.35,11.25-2.35,3.51,0,6.65.57,9.41,1.71,2.76,1.14,4.94,2.78,6.53,4.92,1.59,2.14,2.39,4.73,2.39,7.78s-.9,5.69-2.7,7.69c-1.8,1.99-4.46,3.54-7.97,4.63-3.52,1.09-7.83,1.85-12.96,2.26-3.11.25-6.5.42-10.17.52-.02.33-.03.66-.04.98-.06,1.95.18,3.71.71,5.29.53,1.58,1.48,2.83,2.86,3.74,1.37.92,3.62,1.49,6.06,1.66,1.28.09,2.47.16,3.65.16,1.37,0,2.7-.09,4.07-.36,5.66-.78,9.68-3.82,12.44-8.3,4.96-8.08,9.17-16.6,13.81-24.87,4.1-7.31,8.04-14.74,12.61-21.75,4.67-7.15,11.11-12.4,19.58-14.7,2.1-.57,4.23-.85,6.33-.85M213.45,57.31c2.43-.05,4.59-.13,6.47-.24,3.6-.21,6.4-.55,8.4-1.04,1.99-.49,3.38-1.15,4.16-1.99.78-.84,1.17-1.88,1.17-3.12,0-1.57-.65-2.79-1.95-3.68-1.3-.89-3.1-1.33-5.4-1.33-2.87,0-5.21.69-7.04,2.08-1.83,1.39-3.26,3.15-4.28,5.27-.63,1.31-1.13,2.66-1.53,4.05M294.23,4.07c-2.34,0-4.68.31-6.95.93-8.63,2.35-15.68,7.63-20.95,15.7-3.64,5.57-6.91,11.47-10.07,17.17-.87,1.57-1.74,3.15-2.62,4.71-1.71,3.05-3.39,6.18-5.01,9.2-.13.25-.27.5-.41.76.09-.71.14-1.44.14-2.2,0-3.55-.96-6.65-2.86-9.2-1.85-2.48-4.39-4.4-7.54-5.7-3.04-1.25-6.51-1.89-10.32-1.89-4.4,0-8.52.86-12.25,2.56-3.71,1.69-6.97,4.07-9.7,7.08-2.71,2.98-4.85,6.47-6.35,10.36-1.5,3.87-2.3,8.08-2.4,12.51-.1,4.8.81,8.98,2.68,12.43,1.91,3.51,4.72,6.21,8.36,8.03,3.42,1.72,7.47,2.64,12.38,2.83.65.02,1.25.05,1.81.07,1.67.07,2.99.12,4.21.12,2.32,0,4.22-.2,7.22-.75,9.12-1.43,15.88-6.02,20.08-13.64,7.93-14.4,15.05-27.44,21.75-39.85,2.41-4.47,5.1-7.99,8.22-10.75,3.76-3.33,6.96-4.81,10.37-4.81.68,0,1.39.06,2.09.18,3.78.65,6.19,3.41,6,6.85-.14,2.49-.93,4.73-2.35,6.68-3.39,4.64-8.74,7.13-13.45,9.33-1.46.68-2.94,1.32-4.51,1.99-.74.32-1.49.64-2.26.98-.81.36-1.36,1.14-1.42,2.02-.06.89.37,1.73,1.13,2.2,4.91,3.02,7.81,5.74,9.7,9.1,1.72,3.06,1.89,6.48.48,9.39-1.32,2.71-3.88,4.55-7.02,5.04-.72.11-1.43.17-2.12.17-3.89,0-7.31-1.85-10.18-5.5-1.03-1.32-1.94-2.81-2.9-4.39-.47-.78-.96-1.57-1.47-2.38-.44-.69-1.2-1.1-2.01-1.1-.03,0-.06,0-.09,0-.84.03-1.61.5-2.01,1.25l-1.27,2.34c-1.54,2.81-2.99,5.47-4.42,8.22-.67,1.29-.24,2.93.46,3.9,6.17,8.71,14.22,13.13,23.95,13.13.68,0,1.38-.02,2.08-.07,7.87-.49,14.57-4.06,18.87-10.05,4.35-6.06,5.78-14.04,3.81-21.35-.52-1.92-1.34-3.7-2.13-5.42-.08-.17-.15-.33-.23-.5,5.85-3.88,9.88-8.3,12.3-13.5,3.91-8.4,3.74-16.26-.52-23.35-4.02-6.68-11.79-10.83-20.28-10.83h0ZM216.89,54.82c.08-.18.16-.36.24-.53.86-1.8,2.03-3.23,3.56-4.4,1.42-1.07,3.25-1.6,5.6-1.6,1.8,0,3.17.31,4.06.91.64.44.91.93.91,1.7,0,.64-.17,1.1-.54,1.5-.21.22-.91.79-2.98,1.3-1.85.45-4.53.78-7.97.98-.89.05-1.86.1-2.89.13h0ZM214.52,67.75c2.85-.1,5.54-.26,8.01-.46,5.28-.43,9.81-1.22,13.48-2.36,3.09-.96,5.63-2.27,7.59-3.92-1.21,2.15-2.44,4.28-3.72,6.36-2.57,4.2-6.08,6.55-10.73,7.19-.04,0-.08.01-.12.02-1.13.21-2.28.31-3.63.31-1.16,0-2.36-.07-3.47-.15-2.11-.15-3.95-.63-4.91-1.27-.93-.62-1.56-1.44-1.92-2.52-.32-.97-.52-2.04-.57-3.2h0Z"/>
        </g>
        <g>
          <path class="cls-2" d="M39.71,87.99c-5.41,0-10.29-1.57-14.5-4.66-9.72-7.14-12.34-20.64-6.1-31.41.09-.15.17-.3.26-.44-.5-.38-.99-.76-1.49-1.14-1.68-1.28-3.41-2.59-4.96-4.09-7.68-7.4-10.43-15.96-8.19-25.44,1.89-7.99,9.16-14.15,18.08-15.34,1.25-.17,2.5-.25,3.72-.25,7.36,0,14.17,3,20.83,9.17,5.12,4.75,8.69,10.63,12.19,16.74,1.4,2.44,2.66,4.71,3.85,6.93.39.73.77,1.77.34,2.6-1.43,2.8-2.91,5.54-4.47,8.44l-1.35,2.52c-.21.38-.6.63-1.04.63h-.01c-.43,0-.83-.23-1.04-.61l-2.7-4.82c-1.95-3.49-3.86-6.9-5.8-10.29-2.8-4.91-5.67-9.61-9.87-13.2-3.92-3.36-7.26-4.86-10.82-4.86-.7,0-1.42.06-2.14.18-2.75.46-4.85,1.69-6.06,3.55-1.24,1.9-1.52,4.37-.81,7.17.86,3.39,2.89,6.24,6.39,8.98,3.41,2.66,7.26,4.35,11.34,6.15,1.25.55,2.49,1.09,3.72,1.67.25.12.51.23.77.34l.42.18c.39.17.66.54.71.96s-.14.84-.48,1.09c-.66.48-1.32.94-1.97,1.4-1.42.99-2.76,1.93-3.98,3.01-3.57,3.17-5.38,6.61-5.51,10.51-.1,3.09.94,5.93,2.94,8,2.02,2.08,4.84,3.23,7.96,3.23.18,0,.35,0,.53-.01,4.95-.2,8.91-2.59,11.47-6.91,2.98-5.03,5.82-10.27,8.57-15.33,1.7-3.13,3.46-6.37,5.24-9.54.88-1.57,1.76-3.15,2.63-4.72,3.15-5.69,6.42-11.57,10.03-17.11,5.11-7.83,11.93-12.95,20.28-15.22,2.17-.59,4.41-.89,6.65-.89,8.08,0,15.47,3.93,19.27,10.26,4.05,6.74,4.21,14.22.47,22.25-2.36,5.07-6.33,9.38-12.12,13.18l-.62.4c.22.49.44.96.66,1.44.77,1.68,1.57,3.42,2.06,5.24,1.88,6.97.52,14.58-3.63,20.36-4.09,5.7-10.48,9.1-17.99,9.56-.68.04-1.35.06-2.01.06-9.32,0-17.06-4.25-22.99-12.64-.39-.55-.84-1.77-.37-2.66,1.43-2.75,2.89-5.41,4.42-8.23l1.26-2.32c.2-.37.58-.61,1.01-.62.01,0,.03,0,.04,0,.41,0,.79.21,1.01.55.51.8.99,1.59,1.46,2.36.98,1.61,1.91,3.14,2.98,4.51,3.1,3.96,6.85,5.96,11.13,5.96.75,0,1.53-.06,2.31-.18,3.54-.55,6.42-2.63,7.92-5.71,1.59-3.27,1.4-7.1-.51-10.51-2.5-4.46-6.52-7.33-10.12-9.54-.38-.23-.6-.66-.57-1.1.03-.44.3-.83.71-1.01.76-.33,1.5-.65,2.23-.97,1.58-.68,3.08-1.33,4.56-2.02,4.85-2.26,10.35-4.82,13.93-9.72,1.56-2.13,2.43-4.6,2.58-7.32.23-4.09-2.58-7.35-6.99-8.11-.77-.13-1.55-.2-2.3-.2-3.73,0-7.17,1.58-11.17,5.12-3.23,2.86-6.01,6.48-8.49,11.08-6.71,12.43-13.83,25.48-21.77,39.88-4.02,7.3-10.5,11.69-19.27,13.05-1.61.25-3.2.38-4.73.38Z"/>
          <path class="cls-2" d="M105.36,6.38c7.5,0,14.55,3.53,18.25,9.69,4.14,6.89,3.71,14.05.41,21.13-2.54,5.44-6.73,9.43-11.69,12.68-.5.33-1,.65-1.47.95,1.07,2.55,2.38,4.91,3.06,7.44,3.41,12.65-4.32,27.41-20.54,28.42-.65.04-1.3.06-1.93.06-9.37,0-16.55-4.4-22.02-12.13-.26-.37-.46-1.08-.29-1.42,1.82-3.49,3.73-6.95,5.68-10.53,1.59,2.48,2.87,4.86,4.51,6.96,3.16,4.03,7.17,6.42,12.07,6.42.81,0,1.64-.06,2.49-.2,8.5-1.33,12.55-10.33,8.26-17.98-2.42-4.31-6.12-7.26-10.54-9.98,2.4-1.05,4.63-1.98,6.82-3,5.39-2.51,10.74-5.09,14.39-10.1,1.74-2.38,2.64-5.06,2.81-7.96.26-4.72-3.06-8.5-7.98-9.35-.86-.15-1.69-.22-2.5-.22-4.65,0-8.47,2.33-11.97,5.42-3.64,3.22-6.43,7.12-8.75,11.41-7.19,13.32-14.46,26.61-21.76,39.87-3.99,7.25-10.37,11.2-18.41,12.45-1.53.24-3.05.36-4.54.36-4.93,0-9.61-1.35-13.79-4.42-9.24-6.79-11.65-19.71-5.77-29.85.27-.47.56-.93.79-1.33-2.44-1.95-5-3.69-7.19-5.8-6.92-6.67-10.13-14.69-7.85-24.31,1.8-7.61,8.71-13.32,17.07-14.43,1.22-.16,2.41-.24,3.57-.24,7.74,0,14.23,3.49,20.02,8.85,5.06,4.7,8.57,10.54,11.96,16.46,1.31,2.28,2.59,4.58,3.84,6.9.24.44.51,1.13.33,1.49-1.84,3.6-3.78,7.15-5.81,10.94-2.93-5.21-5.68-10.18-8.51-15.12-2.81-4.92-5.76-9.78-10.13-13.52-3.41-2.91-7.12-5.14-11.59-5.14-.76,0-1.54.06-2.34.2-6.36,1.07-9.43,5.89-7.83,12.19,1.03,4.09,3.58,7.1,6.81,9.63,4.61,3.6,10.08,5.52,15.29,7.95.39.18.79.35,1.23.54-2.07,1.52-4.19,2.85-6.04,4.48-3.39,3-5.75,6.66-5.91,11.36-.24,7.13,5.04,12.47,12.1,12.47.19,0,.38,0,.58-.01,5.53-.23,9.76-2.96,12.45-7.49,4.84-8.16,9.17-16.62,13.82-24.89,4.11-7.31,8.04-14.75,12.62-21.77,4.67-7.16,11.12-12.41,19.59-14.72,2.1-.57,4.24-.85,6.33-.85M105.36,3.99c-2.34,0-4.68.31-6.96.93-8.64,2.35-15.69,7.64-20.97,15.72-3.64,5.58-6.91,11.48-10.08,17.19-.87,1.57-1.75,3.15-2.63,4.72-1.78,3.17-3.54,6.42-5.25,9.56-2.74,5.05-5.58,10.28-8.55,15.29-2.38,4.01-5.91,6.14-10.49,6.33-.16,0-.32,0-.48,0-2.79,0-5.32-1.02-7.1-2.87-1.77-1.83-2.7-4.37-2.61-7.13.12-3.56,1.79-6.72,5.1-9.66,1.17-1.03,2.48-1.95,3.87-2.93.66-.46,1.33-.93,1.99-1.42.69-.51,1.05-1.34.96-2.19-.09-.85-.64-1.58-1.42-1.92l-.43-.18c-.26-.11-.5-.21-.74-.33-1.25-.58-2.51-1.14-3.74-1.68-4.01-1.76-7.8-3.42-11.09-6-3.28-2.56-5.18-5.21-5.97-8.33-.62-2.46-.4-4.61.65-6.22,1.03-1.57,2.85-2.62,5.26-3.03.65-.11,1.31-.17,1.94-.17,3.25,0,6.35,1.41,10.04,4.57,4.06,3.47,6.86,8.08,9.61,12.89,1.95,3.41,3.84,6.78,5.84,10.35.88,1.56,1.76,3.15,2.66,4.75.42.75,1.22,1.22,2.08,1.22,0,0,.02,0,.02,0,.87,0,1.67-.49,2.08-1.26l1.33-2.48c1.57-2.92,3.05-5.68,4.5-8.5.66-1.29.17-2.73-.35-3.71-1.21-2.24-2.47-4.52-3.87-6.96-3.55-6.2-7.17-12.16-12.41-17.03-6.88-6.39-13.96-9.49-21.64-9.49-1.27,0-2.58.09-3.88.26C13.25,5.54,5.58,12.07,3.58,20.54c-2.35,9.92.52,18.86,8.52,26.58,1.6,1.54,3.36,2.89,5.07,4.18.22.16.43.33.65.5-6.21,11.21-3.38,25.1,6.69,32.5,4.41,3.24,9.53,4.89,15.2,4.89,1.59,0,3.24-.13,4.91-.39,9.15-1.42,15.92-6.02,20.13-13.66,7.94-14.42,15.06-27.47,21.77-39.89,2.42-4.48,5.11-7.99,8.23-10.76,3.77-3.33,6.97-4.82,10.38-4.82.68,0,1.39.06,2.1.18,3.78.65,6.2,3.41,6,6.86-.14,2.49-.93,4.74-2.35,6.69-3.39,4.65-8.75,7.14-13.47,9.34-1.46.68-2.94,1.32-4.51,2-.74.32-1.49.64-2.26.98-.81.36-1.36,1.14-1.42,2.02-.06.89.37,1.73,1.13,2.2,4.92,3.02,7.82,5.75,9.71,9.11,1.72,3.07,1.89,6.49.48,9.4-1.32,2.72-3.88,4.56-7.03,5.05-.72.11-1.44.17-2.12.17-3.9,0-7.32-1.85-10.19-5.51-1.03-1.32-1.94-2.81-2.9-4.39-.47-.78-.96-1.58-1.48-2.38-.44-.69-1.2-1.1-2.01-1.1-.03,0-.06,0-.09,0-.84.03-1.61.5-2.01,1.25l-1.27,2.34c-1.54,2.82-2.99,5.48-4.42,8.23-.67,1.29-.24,2.93.46,3.9,6.17,8.72,14.24,13.14,23.97,13.14.68,0,1.38-.02,2.08-.07,7.87-.49,14.58-4.06,18.89-10.06,4.36-6.06,5.78-14.05,3.81-21.37-.52-1.92-1.34-3.7-2.13-5.43-.08-.17-.15-.33-.23-.5,5.86-3.88,9.89-8.31,12.31-13.52,3.92-8.41,3.74-16.27-.53-23.37-4.02-6.69-11.8-10.84-20.3-10.84h0Z"/>
        </g>
      </g>
      <g>
        <g>
          <path class="cls-1" d="M179.54,82.86c-.34,0-.65-.21-.77-.54l-8.29-22.9h-9.81l-3.77,22.76c-.06.39-.4.68-.8.68h-13.56c-.24,0-.47-.1-.62-.29-.15-.18-.22-.42-.18-.66l10.94-66.01c.06-.39.4-.68.8-.68h25.87c5.14,0,9.43.93,12.77,2.76,3.39,1.86,5.82,4.52,7.23,7.91,1.4,3.36,1.73,7.33,1,11.81-.76,4.46-2.42,8.36-4.92,11.6-2.49,3.21-5.75,5.72-9.69,7.47l9.34,25c.09.25.06.53-.09.75-.15.22-.4.35-.67.35h-14.8ZM172.01,46.86c2.57,0,4.79-.38,6.6-1.12,1.77-.72,3.2-1.79,4.24-3.19,1.05-1.41,1.75-3.15,2.09-5.16.52-3.09,0-5.36-1.57-6.94-1.59-1.59-4.28-2.4-8-2.4h-9.5l-3.11,18.8h9.25Z"/>
          <path class="cls-2" d="M179.36,16.04c5.02,0,9.15.89,12.38,2.66,3.23,1.77,5.52,4.28,6.87,7.51,1.34,3.23,1.66,7.02.95,11.36-.74,4.34-2.33,8.09-4.76,11.23-2.44,3.15-5.6,5.57-9.48,7.27-.2.09-.4.16-.6.24l9.62,25.74h-14.8l-8.48-23.44h-11.07l-3.88,23.44h-13.56l10.94-66.01h25.87M161.8,47.67h10.21c2.69,0,4.99-.39,6.91-1.17,1.92-.78,3.45-1.93,4.59-3.46,1.14-1.52,1.88-3.36,2.24-5.52.56-3.34-.04-5.88-1.79-7.64-1.76-1.76-4.62-2.64-8.57-2.64h-10.19l-3.38,20.42M179.36,14.41h-25.87c-.8,0-1.48.58-1.61,1.36l-10.94,66.01c-.08.47.06.95.36,1.32.31.36.76.57,1.24.57h13.56c.8,0,1.48-.58,1.61-1.36l3.66-22.07h8.55l8.09,22.36c.23.64.85,1.07,1.53,1.07h14.8c.53,0,1.03-.26,1.34-.7s.37-1,.19-1.5l-9.08-24.29c3.76-1.78,6.88-4.26,9.31-7.39,2.59-3.34,4.3-7.37,5.08-11.95.76-4.64.4-8.76-1.05-12.26-1.48-3.57-4.04-6.37-7.59-8.31-3.46-1.9-7.89-2.86-13.16-2.86h0ZM166.57,28.87h8.81c3.49,0,5.99.73,7.42,2.16,1.37,1.37,1.81,3.41,1.34,6.22-.31,1.89-.96,3.51-1.94,4.81-.97,1.29-2.24,2.25-3.9,2.92-1.71.7-3.83,1.05-6.3,1.05h-8.29l2.85-17.17h0Z"/>
        </g>
        <g>
          <path class="cls-1" d="M322.53,27.62c-2.27,0-4.1-.76-5.46-2.26-1.36-1.51-1.88-3.38-1.55-5.54.36-2.12,1.46-3.93,3.26-5.38,1.79-1.44,3.81-2.17,6-2.17,2.3,0,4.15.76,5.5,2.26,1.37,1.52,1.87,3.38,1.5,5.55-.32,2.11-1.41,3.92-3.22,5.37-1.79,1.44-3.83,2.17-6.05,2.17Z"/>
          <path class="cls-2" d="M324.79,13.07c2.07,0,3.7.66,4.9,1.99,1.2,1.33,1.63,2.95,1.31,4.87-.3,1.92-1.27,3.54-2.92,4.87-1.65,1.33-3.5,1.99-5.54,1.99s-3.65-.66-4.85-1.99c-1.2-1.33-1.65-2.95-1.35-4.87.32-1.92,1.31-3.54,2.97-4.87,1.65-1.33,3.48-1.99,5.49-1.99M324.79,11.44c-2.38,0-4.57.79-6.51,2.35-1.97,1.58-3.16,3.55-3.55,5.87-.38,2.44.21,4.53,1.75,6.23,1.51,1.68,3.55,2.53,6.06,2.53s4.61-.79,6.56-2.35c1.97-1.59,3.16-3.57,3.51-5.89.41-2.4-.17-4.5-1.71-6.21-1.51-1.68-3.57-2.53-6.11-2.53h0Z"/>
        </g>
        <g>
          <path class="cls-1" d="M306.8,82.86c-.24,0-.47-.1-.62-.29-.15-.18-.22-.42-.18-.66l8.06-48.91c.06-.39.4-.68.8-.68h13.25c.24,0,.47.1.62.29.15.18.22.42.18.66l-8.11,48.91c-.06.39-.4.68-.8.68h-13.2Z"/>
          <path class="cls-2" d="M328.11,33.14h0M328.11,33.14l-8.11,48.91h-13.2l8.06-48.91h13.25M328.12,31.51h-13.25c-.8,0-1.48.58-1.61,1.36l-8.06,48.91c-.08.47.06.95.36,1.32s.76.57,1.24.57h13.2c.8,0,1.48-.58,1.61-1.36l8.09-48.82c.03-.12.04-.23.04-.36,0-.9-.73-1.63-1.63-1.63h0ZM328.11,34.77h0,0Z"/>
        </g>
        <g>
          <path class="cls-1" d="M357.55,82.86c-.24,0-.47-.11-.62-.29s-.22-.42-.18-.66l4.87-29.11c.46-2.84.12-4.99-1.02-6.37-1.15-1.4-2.87-2.07-5.26-2.07-1.8,0-3.48.41-4.98,1.21-1.5.8-2.76,1.97-3.76,3.48-1.01,1.52-1.71,3.37-2.07,5.49l-4.56,27.64c-.06.39-.4.68-.8.68h-13.25c-.24,0-.47-.1-.62-.29-.15-.18-.22-.42-.18-.66l8.11-48.91c.06-.39.4-.68.8-.68h12.58c.24,0,.46.1.62.28.15.18.22.42.19.65l-.78,5.44c1.19-1.45,2.48-2.69,3.86-3.71,3.04-2.24,6.71-3.37,10.92-3.37,3.66,0,6.79.83,9.3,2.46,2.54,1.64,4.36,4,5.42,7.01,1.05,2.97,1.24,6.51.57,10.53l-5.09,30.57c-.07.39-.4.68-.8.68h-13.25Z"/>
          <path class="cls-2" d="M361.4,32.43c3.51,0,6.47.78,8.86,2.33,2.39,1.55,4.09,3.75,5.09,6.6,1,2.85,1.18,6.22.53,10.12l-5.09,30.57h-13.25l4.87-29.11c.5-3.1.1-5.44-1.2-7.02-1.3-1.58-3.26-2.37-5.89-2.37-1.95,0-3.74.44-5.36,1.31-1.62.87-2.98,2.12-4.05,3.74-1.08,1.62-1.81,3.56-2.19,5.8l-4.56,27.65h-13.25l8.11-48.91h12.58l-1.26,8.72c1.64-2.59,3.51-4.67,5.62-6.22,2.91-2.14,6.39-3.21,10.43-3.21M361.4,30.8c-4.38,0-8.22,1.19-11.4,3.53-.76.56-1.49,1.18-2.2,1.87l.41-2.83c.07-.47-.07-.94-.38-1.3-.31-.36-.76-.56-1.23-.56h-12.58c-.8,0-1.48.58-1.61,1.36l-8.11,48.91c-.08.47.06.95.36,1.32.31.36.76.57,1.24.57h13.25c.8,0,1.48-.58,1.61-1.36l4.56-27.65c.34-2,1-3.74,1.94-5.17.94-1.41,2.07-2.46,3.47-3.21,1.38-.74,2.92-1.11,4.59-1.11,2.14,0,3.65.58,4.64,1.78.98,1.2,1.27,3.12.85,5.73l-4.87,29.1c-.08.47.05.95.36,1.32.31.37.76.58,1.24.58h13.25c.8,0,1.47-.58,1.61-1.36l5.09-30.57c.69-4.15.49-7.83-.6-10.93-1.12-3.18-3.06-5.68-5.74-7.43-2.65-1.72-5.93-2.59-9.75-2.59h0Z"/>
        </g>
        <g>
          <path class="cls-1" d="M395.35,83.7c-5.32,0-9.7-1.81-13-5.38-3.29-3.55-4.96-8.6-4.96-15.02,0-3.84.55-7.67,1.63-11.39,1.08-3.73,2.69-7.16,4.79-10.18,2.11-3.05,4.74-5.52,7.81-7.35,3.1-1.84,6.66-2.77,10.61-2.77,2.86,0,5.27.49,7.15,1.46,1.88.97,3.38,2.21,4.47,3.7.59.81,1.1,1.63,1.52,2.46l3.86-23.33c.06-.39.4-.68.8-.68h13.25c.24,0,.47.1.62.29.15.18.22.42.18.66l-10.94,66.01c-.06.39-.4.68-.8.68h-13.02c-.24,0-.47-.11-.62-.29-.15-.18-.22-.43-.18-.66l.86-5c-.64.83-1.35,1.62-2.12,2.34-1.42,1.35-3.14,2.44-5.1,3.24-1.97.8-4.25,1.21-6.8,1.21ZM405.9,43.87c-2.16,0-4.08.55-5.71,1.64-1.66,1.11-3.08,2.6-4.21,4.42-1.15,1.86-2.03,3.92-2.61,6.12-.58,2.21-.88,4.41-.88,6.55,0,2.76.61,4.96,1.83,6.55,1.18,1.54,2.92,2.29,5.33,2.29,2.16,0,4.08-.55,5.71-1.64,1.67-1.11,3.1-2.6,4.26-4.43,1.18-1.86,2.08-3.91,2.67-6.11.6-2.21.9-4.41.9-6.54,0-2.81-.63-5.02-1.88-6.58-1.22-1.52-2.99-2.27-5.41-2.27Z"/>
          <path class="cls-2" d="M433.28,16.04h0M433.28,16.04l-10.94,66.01h-13.03l1.33-7.71h-.53c-.92,1.59-2.05,3.03-3.41,4.32-1.36,1.28-2.98,2.31-4.85,3.08-1.88.77-4.04,1.15-6.49,1.15-5.11,0-9.24-1.71-12.4-5.12-3.16-3.41-4.74-8.23-4.74-14.46,0-3.78.53-7.5,1.59-11.16,1.06-3.66,2.62-6.98,4.67-9.95,2.05-2.97,4.57-5.34,7.55-7.11,2.98-1.77,6.38-2.66,10.19-2.66,2.75,0,5.01.46,6.78,1.37,1.77.92,3.17,2.07,4.19,3.46,1.02,1.39,1.76,2.79,2.24,4.21h.4l4.21-25.43h13.25M399.65,72.26c2.33,0,4.39-.59,6.16-1.77,1.77-1.18,3.27-2.74,4.5-4.67,1.23-1.93,2.15-4.05,2.77-6.34.62-2.29.93-4.54.93-6.76,0-3.01-.69-5.38-2.06-7.09-1.37-1.71-3.39-2.57-6.05-2.57-2.33,0-4.39.59-6.16,1.77-1.77,1.18-3.26,2.74-4.45,4.67-1.2,1.93-2.1,4.05-2.7,6.34-.61,2.29-.91,4.54-.91,6.76,0,2.95.66,5.3,1.99,7.04,1.33,1.74,3.32,2.61,5.98,2.61M433.28,14.41h-13.25c-.8,0-1.48.58-1.61,1.36l-3.5,21.13c-.14-.2-.28-.41-.43-.61-1.16-1.59-2.76-2.91-4.75-3.94-2-1.03-4.53-1.56-7.53-1.56-4.09,0-7.8.97-11.02,2.89-3.17,1.88-5.88,4.44-8.06,7.58-2.14,3.1-3.79,6.6-4.9,10.42-1.1,3.79-1.66,7.7-1.66,11.62,0,6.63,1.74,11.87,5.17,15.57,3.47,3.74,8.04,5.64,13.6,5.64,2.65,0,5.04-.43,7.11-1.27,2.05-.84,3.85-1.99,5.35-3.4.09-.09.18-.17.27-.26l-.38,2.19c-.08.47.05.96.36,1.33.31.37.76.58,1.24.58h13.03c.8,0,1.48-.58,1.61-1.36l10.93-65.92c.03-.12.04-.24.04-.36,0-.9-.73-1.63-1.62-1.63h0ZM433.28,17.66h0,0ZM399.65,70.63c-2.14,0-3.67-.65-4.69-1.97-1.1-1.44-1.66-3.48-1.66-6.06,0-2.06.29-4.2.85-6.34.56-2.12,1.41-4.11,2.51-5.9,1.07-1.73,2.4-3.13,3.97-4.18,1.51-1.01,3.23-1.5,5.26-1.5,2.16,0,3.72.64,4.78,1.96,1.13,1.41,1.7,3.45,1.7,6.07,0,2.06-.29,4.19-.87,6.33-.57,2.12-1.44,4.1-2.57,5.89-1.1,1.73-2.45,3.14-4.02,4.19-1.51,1.01-3.23,1.5-5.26,1.5h0Z"/>
        </g>
        <g>
          <path class="cls-1" d="M223.8,83.29c-1.54,0-3.28-.1-5.76-.26-5.08-.33-8.69-1.15-11.71-2.66-3.34-1.68-5.92-4.16-7.68-7.38-1.74-3.2-2.58-7.11-2.49-11.64.09-4.24.86-8.27,2.29-11.97,1.43-3.71,3.47-7.03,6.05-9.87,2.59-2.85,5.68-5.1,9.19-6.71,3.52-1.61,7.42-2.42,11.59-2.42,3.6,0,6.87.59,9.72,1.77,2.89,1.19,5.2,2.93,6.88,5.18,1.69,2.28,2.55,5.05,2.55,8.26s-.98,6.09-2.91,8.23c-1.89,2.09-4.7,3.73-8.34,4.86-3.56,1.11-7.98,1.88-13.13,2.29-2.88.23-6.06.4-9.46.5,0,.07,0,.14,0,.2-.06,1.85.17,3.54.67,5.02.48,1.42,1.31,2.51,2.54,3.33,1.2.8,3.26,1.36,5.67,1.53,1.15.08,2.37.16,3.59.16,1.45,0,2.69-.11,3.92-.34,5.11-.7,9.1-3.37,11.9-7.93,3.13-5.1,6.01-10.47,8.79-15.66,1.62-3.02,3.29-6.14,5-9.18.88-1.57,1.75-3.14,2.63-4.72,3.15-5.68,6.4-11.55,10.01-17.07,5.05-7.74,11.79-12.8,20.04-15.04,2.14-.58,4.34-.88,6.54-.88,7.94,0,15.19,3.86,18.93,10.07,3.98,6.62,4.13,13.97.45,21.88-2.33,5-6.25,9.26-11.97,13.01l-.89.58c.26.59.52,1.16.79,1.74.77,1.67,1.56,3.39,2.04,5.18,1.85,6.86.51,14.34-3.57,20.02-4.02,5.6-10.3,8.94-17.69,9.4-.67.04-1.33.06-1.98.06h0c-9.18,0-16.81-4.19-22.66-12.46-.36-.51-.71-1.56-.34-2.26,1.42-2.72,2.85-5.35,4.38-8.14l1.3-2.39c.14-.25.4-.41.69-.42h.03c.28,0,.54.14.69.37.51.79.99,1.58,1.45,2.35.99,1.62,1.92,3.15,3.01,4.54,3.18,4.05,7.02,6.1,11.41,6.1.77,0,1.56-.06,2.36-.19,3.66-.57,6.64-2.72,8.19-5.91,1.64-3.38,1.45-7.33-.52-10.85-2.54-4.53-6.6-7.43-10.24-9.67-.26-.16-.41-.45-.39-.75.02-.3.21-.57.49-.69.76-.33,1.51-.66,2.24-.97,1.58-.68,3.07-1.33,4.55-2.01,4.89-2.28,10.43-4.86,14.06-9.83,1.6-2.19,2.49-4.72,2.65-7.52.24-4.22-2.77-7.71-7.3-8.49-.8-.14-1.59-.21-2.36-.21-3.82,0-7.34,1.61-11.41,5.21-3.26,2.88-6.06,6.54-8.56,11.18-6.71,12.42-13.82,25.45-21.74,39.84-3.96,7.18-10.34,11.5-18.98,12.85-3.24.6-4.99.8-7.16.8ZM223.95,41.97c-2.67,0-4.87.65-6.55,1.92-1.72,1.3-3.08,2.98-4.03,4.97-.43.9-.81,1.85-1.15,2.86,1.97-.05,3.75-.12,5.31-.21,3.53-.2,6.31-.54,8.25-1.02,1.83-.45,3.09-1.04,3.76-1.76.64-.69.96-1.53.96-2.57,0-1.29-.52-2.27-1.59-3-1.16-.79-2.82-1.19-4.95-1.19Z"/>
          <path class="cls-2" d="M291.87,1.71c7.49,0,14.53,3.52,18.23,9.68,4.14,6.88,3.7,14.04.41,21.11-2.53,5.44-6.72,9.42-11.68,12.67-.5.33-1,.65-1.46.95,1.07,2.55,2.38,4.91,3.06,7.44,3.4,12.64-4.32,27.39-20.52,28.39-.65.04-1.3.06-1.93.06-9.36,0-16.53-4.4-22-12.12-.26-.37-.46-1.08-.29-1.42,1.82-3.49,3.73-6.94,5.67-10.52,1.59,2.48,2.87,4.86,4.51,6.95,3.16,4.02,7.16,6.41,12.06,6.41.81,0,1.64-.06,2.49-.2,8.49-1.32,12.54-10.32,8.26-17.96-2.41-4.3-6.12-7.25-10.53-9.97,2.4-1.05,4.63-1.98,6.81-3,5.39-2.51,10.73-5.09,14.38-10.09,1.74-2.38,2.64-5.06,2.8-7.95.26-4.71-3.06-8.49-7.97-9.34-.86-.15-1.69-.22-2.5-.22-4.65,0-8.46,2.32-11.95,5.41-3.64,3.22-6.43,7.11-8.74,11.4-7.19,13.31-14.44,26.58-21.74,39.83-3.99,7.24-10.36,11.19-18.39,12.44-3.08.57-4.83.79-7.03.79-1.51,0-3.22-.1-5.71-.26-4.39-.28-8.19-.97-11.4-2.58-3.2-1.61-5.65-3.96-7.33-7.04-1.68-3.09-2.48-6.83-2.39-11.23.09-4.16.83-8.06,2.24-11.7,1.4-3.63,3.37-6.84,5.89-9.61,2.53-2.78,5.5-4.95,8.93-6.51,3.43-1.57,7.18-2.35,11.25-2.35,3.51,0,6.65.57,9.41,1.71,2.76,1.14,4.94,2.78,6.53,4.92,1.59,2.14,2.39,4.73,2.39,7.78s-.9,5.69-2.7,7.69c-1.8,1.99-4.46,3.54-7.97,4.63-3.52,1.09-7.83,1.85-12.96,2.26-3.11.25-6.5.42-10.17.52-.02.33-.03.66-.04.98-.06,1.95.18,3.71.71,5.29.53,1.58,1.48,2.83,2.86,3.74,1.37.92,3.62,1.49,6.06,1.66,1.28.09,2.47.16,3.65.16,1.37,0,2.7-.09,4.07-.36,5.66-.78,9.68-3.82,12.44-8.3,4.96-8.08,9.17-16.6,13.81-24.87,4.1-7.31,8.04-14.74,12.61-21.75,4.67-7.15,11.11-12.4,19.58-14.7,2.1-.57,4.23-.85,6.33-.85M211.1,52.56c2.43-.05,4.59-.13,6.47-.24,3.6-.21,6.4-.55,8.4-1.04,1.99-.49,3.38-1.15,4.16-1.99.78-.84,1.17-1.88,1.17-3.12,0-1.57-.65-2.79-1.95-3.68-1.3-.89-3.1-1.33-5.4-1.33-2.87,0-5.21.69-7.04,2.08-1.83,1.39-3.26,3.15-4.28,5.27-.63,1.31-1.13,2.66-1.53,4.05M291.87.08c-2.27,0-4.55.3-6.75.9-8.45,2.3-15.35,7.47-20.51,15.38-3.62,5.55-6.88,11.43-10.04,17.12-.87,1.57-1.75,3.15-2.63,4.72-1.71,3.04-3.38,6.17-5,9.18-2.78,5.19-5.66,10.55-8.77,15.63-2.66,4.34-6.46,6.88-11.27,7.54-.03,0-.05,0-.08.01-1.17.22-2.37.33-3.77.33-1.19,0-2.4-.08-3.53-.16-2.24-.16-4.21-.68-5.28-1.39-1.08-.72-1.8-1.67-2.22-2.91-.42-1.24-.63-2.65-.63-4.18,3.12-.1,6.05-.27,8.72-.48,5.22-.42,9.7-1.2,13.31-2.33,3.78-1.17,6.71-2.89,8.7-5.09,2.07-2.29,3.12-5.25,3.12-8.78s-.91-6.33-2.71-8.75c-1.77-2.37-4.2-4.2-7.22-5.45-2.95-1.21-6.32-1.83-10.03-1.83-4.29,0-8.31.84-11.93,2.5-3.61,1.65-6.79,3.97-9.45,6.9-2.65,2.91-4.74,6.32-6.21,10.12-1.46,3.79-2.25,7.91-2.35,12.25-.09,4.67.78,8.72,2.59,12.04,1.84,3.37,4.54,5.97,8.03,7.72,3.12,1.57,6.83,2.42,12.02,2.75,2.49.16,4.24.26,5.81.26,2.23,0,4.01-.2,7.33-.82,8.85-1.38,15.43-5.84,19.52-13.25,7.93-14.4,15.05-27.44,21.75-39.85,2.46-4.55,5.2-8.13,8.39-10.95,3.91-3.46,7.27-5,10.87-5,.73,0,1.47.07,2.22.19,4.18.72,6.84,3.79,6.63,7.65-.15,2.64-.99,5.02-2.49,7.08-3.5,4.8-8.95,7.33-13.75,9.57-1.47.68-2.95,1.32-4.53,2-.74.32-1.49.64-2.25.98-.55.24-.93.77-.97,1.38-.04.6.26,1.18.77,1.5,5.03,3.09,8.01,5.9,9.96,9.37,1.84,3.28,2.02,6.96.5,10.09-1.43,2.94-4.19,4.93-7.58,5.46-.76.12-1.51.18-2.24.18-4.14,0-7.76-1.95-10.77-5.79-1.06-1.35-1.98-2.86-2.95-4.46-.47-.77-.95-1.56-1.47-2.37-.3-.47-.82-.75-1.37-.75-.02,0-.04,0-.06,0-.58.02-1.1.34-1.37.85l-1.27,2.34c-1.53,2.81-2.98,5.47-4.41,8.2-.56,1.07-.07,2.45.4,3.11,6.02,8.5,13.87,12.81,23.33,12.81.67,0,1.35-.02,2.03-.06,7.64-.47,14.14-3.93,18.3-9.73,4.22-5.88,5.6-13.62,3.69-20.71-.5-1.86-1.31-3.61-2.08-5.3-.17-.36-.33-.73-.5-1.1.1-.07.21-.14.31-.2,5.85-3.83,9.87-8.2,12.26-13.34,3.8-8.16,3.64-15.78-.49-22.64-3.88-6.46-11.4-10.47-19.63-10.47h0ZM213.38,50.87c.22-.57.46-1.13.71-1.66.9-1.88,2.18-3.45,3.79-4.68,1.53-1.16,3.57-1.75,6.06-1.75,1.96,0,3.47.35,4.49,1.05.86.58,1.24,1.3,1.24,2.33,0,.83-.23,1.47-.74,2.02-.38.41-1.28,1.01-3.36,1.52-1.89.46-4.62.8-8.1,1-1.23.07-2.6.13-4.09.18h0Z"/>
        </g>
        <g>
          <path class="cls-1" d="M36.16,82.86c-5.33,0-10.13-1.54-14.27-4.58-9.56-7.03-12.14-20.32-5.99-30.91.14-.25.29-.49.43-.72-.58-.45-1.17-.9-1.75-1.34-1.67-1.27-3.4-2.58-4.94-4.07C2.07,33.93-.65,25.49,1.56,16.15,3.42,8.32,10.55,2.27,19.32,1.11c1.23-.16,2.47-.25,3.67-.25,7.26,0,13.99,2.97,20.57,9.07,5.08,4.71,8.63,10.57,12.12,16.66,1.36,2.38,2.66,4.71,3.85,6.92.35.65.69,1.56.34,2.24-1.45,2.82-2.93,5.58-4.5,8.51l-1.31,2.45c-.14.26-.41.43-.71.43h0c-.29,0-.57-.16-.71-.42l-2.66-4.74c-1.97-3.52-3.89-6.96-5.85-10.38-2.82-4.93-5.7-9.67-9.96-13.3-4-3.42-7.41-4.95-11.06-4.95-.72,0-1.46.06-2.2.19-2.86.48-5.04,1.77-6.32,3.72-1.3,1.99-1.59,4.57-.86,7.46.88,3.48,2.95,6.39,6.52,9.18,3.45,2.69,7.5,4.47,11.43,6.2,1.24.54,2.48,1.09,3.71,1.66.25.12.5.23.77.34l.44.19c.27.12.45.37.48.66.03.29-.09.57-.33.75-.65.48-1.31.94-1.96,1.39-1.43,1-2.79,1.95-4.02,3.04-3.66,3.24-5.5,6.77-5.63,10.78-.11,3.2.98,6.13,3.05,8.28,2.09,2.16,5.01,3.35,8.24,3.35.18,0,.36,0,.54-.01,5.08-.21,9.15-2.66,11.78-7.1,2.98-5.03,5.82-10.27,8.57-15.33,1.7-3.14,3.46-6.38,5.24-9.55.88-1.57,1.75-3.14,2.63-4.72,3.15-5.68,6.41-11.56,10.02-17.09,5.06-7.75,11.81-12.81,20.06-15.06,2.14-.58,4.34-.88,6.55-.88,7.95,0,15.21,3.86,18.95,10.08,3.98,6.62,4.13,13.99.45,21.9-2.33,5.01-6.25,9.27-11.98,13.02l-.89.58c.26.59.52,1.17.79,1.74.77,1.67,1.56,3.39,2.04,5.18,1.85,6.86.51,14.36-3.57,20.04-4.03,5.61-10.31,8.95-17.71,9.41-.67.04-1.33.06-1.98.06-9.19,0-16.82-4.2-22.68-12.48-.37-.52-.71-1.56-.35-2.27,1.43-2.73,2.87-5.39,4.41-8.2l1.28-2.34c.14-.25.4-.41.69-.42h.03c.28,0,.54.14.69.37.51.8.99,1.58,1.46,2.35.99,1.62,1.92,3.16,3.01,4.55,3.18,4.05,7.02,6.11,11.43,6.11.77,0,1.56-.06,2.37-.19,3.66-.57,6.65-2.73,8.2-5.92,1.64-3.38,1.45-7.34-.52-10.86-2.54-4.54-6.61-7.44-10.25-9.68-.26-.16-.41-.45-.39-.75.02-.3.21-.57.49-.69.76-.33,1.51-.66,2.24-.97,1.58-.68,3.08-1.33,4.56-2.02,4.9-2.28,10.44-4.86,14.08-9.84,1.6-2.2,2.49-4.73,2.65-7.53.24-4.22-2.77-7.72-7.31-8.5-.8-.14-1.59-.21-2.36-.21-3.83,0-7.35,1.61-11.43,5.21-3.26,2.89-6.07,6.55-8.57,11.19-6.71,12.42-13.83,25.47-21.76,39.88-3.96,7.19-10.35,11.52-18.99,12.86-1.59.25-3.16.37-4.67.37Z"/>
          <path class="cls-2" d="M101.81,1.63c7.5,0,14.55,3.53,18.25,9.69,4.14,6.89,3.7,14.05.41,21.13-2.54,5.44-6.73,9.43-11.69,12.68-.5.33-1,.65-1.47.95,1.07,2.55,2.38,4.91,3.06,7.44,3.41,12.65-4.32,27.41-20.54,28.42-.65.04-1.3.06-1.93.06-9.37,0-16.55-4.4-22.02-12.13-.26-.37-.46-1.08-.29-1.42,1.82-3.49,3.73-6.95,5.68-10.53,1.59,2.48,2.87,4.86,4.51,6.96,3.16,4.03,7.17,6.42,12.07,6.42.81,0,1.64-.07,2.49-.2,8.5-1.33,12.55-10.33,8.26-17.98-2.42-4.31-6.12-7.26-10.54-9.98,2.4-1.05,4.63-1.98,6.82-3,5.39-2.51,10.74-5.09,14.39-10.1,1.74-2.38,2.64-5.06,2.81-7.96.26-4.72-3.06-8.5-7.98-9.35-.86-.15-1.69-.22-2.5-.22-4.65,0-8.47,2.33-11.96,5.42-3.64,3.22-6.43,7.12-8.75,11.41-7.19,13.32-14.46,26.61-21.76,39.87-3.99,7.25-10.37,11.2-18.4,12.45-1.53.24-3.05.36-4.54.36-4.93,0-9.61-1.35-13.79-4.42-9.24-6.79-11.65-19.71-5.77-29.85.27-.47.56-.93.79-1.33-2.44-1.95-5-3.69-7.19-5.8C3.29,33.98.08,25.96,2.35,16.34,4.16,8.73,11.07,3.02,19.43,1.91c1.22-.16,2.41-.24,3.57-.24,7.74,0,14.23,3.49,20.02,8.85,5.06,4.7,8.57,10.54,11.96,16.46,1.31,2.28,2.59,4.58,3.84,6.9.24.44.51,1.13.33,1.49-1.84,3.6-3.78,7.15-5.81,10.94-2.93-5.21-5.68-10.18-8.51-15.12-2.81-4.92-5.76-9.78-10.13-13.52-3.41-2.91-7.12-5.14-11.59-5.14-.76,0-1.54.06-2.34.2-6.36,1.07-9.43,5.89-7.83,12.19,1.03,4.09,3.58,7.1,6.81,9.63,4.61,3.6,10.08,5.52,15.29,7.95.39.18.79.35,1.23.54-2.07,1.52-4.19,2.85-6.04,4.48-3.39,3-5.75,6.66-5.91,11.36-.24,7.13,5.04,12.47,12.1,12.47.19,0,.38,0,.58-.01,5.53-.23,9.76-2.96,12.45-7.49,4.84-8.16,9.17-16.62,13.82-24.89,4.11-7.31,8.04-14.75,12.62-21.77,4.67-7.16,11.12-12.41,19.59-14.72,2.1-.57,4.23-.85,6.33-.85M101.81,0c-2.28,0-4.55.3-6.76.9-8.46,2.3-15.36,7.48-20.53,15.4-3.63,5.56-6.89,11.44-10.05,17.14-.87,1.58-1.75,3.15-2.63,4.72-1.78,3.17-3.54,6.41-5.24,9.55-2.75,5.06-5.59,10.29-8.56,15.31-2.48,4.19-6.33,6.5-11.12,6.7-.17,0-.34.01-.51.01-3,0-5.72-1.1-7.65-3.1-1.92-1.98-2.92-4.71-2.82-7.69.13-3.78,1.88-7.11,5.36-10.2,1.2-1.06,2.53-1.99,3.94-2.98.66-.46,1.32-.92,1.98-1.41.47-.34.72-.91.65-1.49-.06-.58-.43-1.08-.97-1.31l-.42-.18c-.26-.11-.51-.22-.76-.34-1.24-.58-2.5-1.13-3.72-1.67-4.06-1.78-7.89-3.46-11.25-6.09-3.42-2.67-5.4-5.45-6.24-8.74-.68-2.67-.42-5.03.75-6.82,1.15-1.76,3.14-2.92,5.77-3.36.69-.12,1.39-.18,2.07-.18,3.44,0,6.69,1.47,10.53,4.75,4.15,3.55,6.99,8.22,9.78,13.09,1.95,3.41,3.84,6.79,5.84,10.36.88,1.56,1.76,3.15,2.66,4.75.29.51.83.83,1.42.83,0,0,.01,0,.02,0,.59,0,1.14-.34,1.42-.86l1.33-2.48c1.57-2.92,3.05-5.67,4.49-8.49.51-1,.09-2.18-.35-3-1.21-2.24-2.47-4.51-3.86-6.94-3.52-6.14-7.1-12.06-12.27-16.85C37.38,3.08,30.47.04,22.99.04c-1.24,0-2.51.09-3.78.25C10.11,1.51,2.7,7.8.77,15.96c-2.28,9.64.51,18.34,8.31,25.86,1.57,1.51,3.31,2.84,5,4.12.39.3.78.6,1.18.9-.02.04-.04.08-.07.11-6.35,10.95-3.68,24.7,6.22,31.98,4.28,3.15,9.24,4.74,14.75,4.74,1.55,0,3.16-.13,4.79-.38,8.9-1.38,15.49-5.85,19.58-13.27,7.94-14.42,15.06-27.47,21.77-39.88,2.46-4.56,5.21-8.14,8.4-10.97,3.92-3.46,7.27-5.01,10.89-5.01.73,0,1.48.07,2.23.2,4.18.72,6.85,3.8,6.63,7.65-.15,2.64-.99,5.02-2.5,7.09-3.51,4.81-8.96,7.34-13.76,9.58-1.47.68-2.96,1.33-4.53,2-.74.32-1.49.64-2.26.98-.55.24-.93.77-.97,1.38-.04.6.26,1.18.77,1.5,5.04,3.1,8.02,5.9,9.97,9.38,1.84,3.29,2.02,6.97.5,10.1-1.43,2.94-4.2,4.94-7.59,5.47-.76.12-1.51.18-2.24.18-4.14,0-7.77-1.95-10.79-5.8-1.06-1.35-1.98-2.87-2.96-4.47-.47-.77-.95-1.57-1.47-2.37-.3-.47-.82-.75-1.37-.75-.02,0-.04,0-.06,0-.58.02-1.1.34-1.37.85l-1.27,2.33c-1.54,2.82-2.99,5.48-4.42,8.22-.56,1.08-.07,2.45.4,3.11,6.02,8.51,13.88,12.82,23.35,12.82.67,0,1.35-.02,2.03-.06,7.64-.48,14.15-3.93,18.32-9.74,4.22-5.88,5.6-13.63,3.69-20.73-.5-1.86-1.31-3.61-2.09-5.31-.17-.36-.33-.73-.5-1.1.1-.07.21-.14.31-.2,5.86-3.84,9.87-8.21,12.27-13.36,3.8-8.17,3.64-15.79-.49-22.66-3.88-6.46-11.41-10.47-19.64-10.47h0Z"/>
        </g>
      </g>
    </g>
  </g>
</svg>